<mxfile host="app.diagrams.net" modified="2021-10-29T20:45:27.243Z" agent="5.0 (Macintosh; Intel Mac OS X 10_15_7) AppleWebKit/605.1.15 (KHTML, like Gecko) Version/15.0 Safari/605.1.15" etag="A8Ik-zajQuauylEUVNXO" version="15.5.9" type="github">
  <diagram id="xMLaQp4YsvD7ho077BGZ" name="Page-1">
    <mxGraphModel dx="983" dy="626" grid="1" gridSize="10" guides="1" tooltips="1" connect="1" arrows="1" fold="1" page="1" pageScale="1" pageWidth="850" pageHeight="1100" math="0" shadow="0">
      <root>
        <mxCell id="0" />
        <mxCell id="1" parent="0" />
        <mxCell id="LvPxyvV4hAA7-NQwLExC-2" value="restaurant_id" style="rounded=0;whiteSpace=wrap;html=1;" parent="1" vertex="1">
          <mxGeometry x="110" y="50" width="90" height="20" as="geometry" />
        </mxCell>
        <mxCell id="LvPxyvV4hAA7-NQwLExC-6" value="phoneNumber" style="rounded=0;whiteSpace=wrap;html=1;" parent="1" vertex="1">
          <mxGeometry x="200" y="50" width="90" height="20" as="geometry" />
        </mxCell>
        <mxCell id="LvPxyvV4hAA7-NQwLExC-8" value="address" style="rounded=0;whiteSpace=wrap;html=1;" parent="1" vertex="1">
          <mxGeometry x="290" y="50" width="60" height="20" as="geometry" />
        </mxCell>
        <mxCell id="LvPxyvV4hAA7-NQwLExC-9" value="city" style="rounded=0;whiteSpace=wrap;html=1;" parent="1" vertex="1">
          <mxGeometry x="350" y="50" width="40" height="20" as="geometry" />
        </mxCell>
        <mxCell id="LvPxyvV4hAA7-NQwLExC-11" value="zip" style="rounded=0;whiteSpace=wrap;html=1;" parent="1" vertex="1">
          <mxGeometry x="390" y="50" width="40" height="20" as="geometry" />
        </mxCell>
        <mxCell id="LvPxyvV4hAA7-NQwLExC-12" value="customer_id" style="rounded=0;whiteSpace=wrap;html=1;" parent="1" vertex="1">
          <mxGeometry x="510" y="50" width="90" height="20" as="geometry" />
        </mxCell>
        <mxCell id="LvPxyvV4hAA7-NQwLExC-13" value="phoneNumber" style="rounded=0;whiteSpace=wrap;html=1;" parent="1" vertex="1">
          <mxGeometry x="600" y="50" width="90" height="20" as="geometry" />
        </mxCell>
        <mxCell id="LvPxyvV4hAA7-NQwLExC-14" value="lastName" style="rounded=0;whiteSpace=wrap;html=1;" parent="1" vertex="1">
          <mxGeometry x="690" y="50" width="60" height="20" as="geometry" />
        </mxCell>
        <mxCell id="LvPxyvV4hAA7-NQwLExC-15" value="firstName" style="rounded=0;whiteSpace=wrap;html=1;" parent="1" vertex="1">
          <mxGeometry x="750" y="50" width="60" height="20" as="geometry" />
        </mxCell>
        <mxCell id="LvPxyvV4hAA7-NQwLExC-17" value="tag_id" style="rounded=0;whiteSpace=wrap;html=1;" parent="1" vertex="1">
          <mxGeometry x="20" y="120" width="60" height="20" as="geometry" />
        </mxCell>
        <mxCell id="LvPxyvV4hAA7-NQwLExC-18" value="tag" style="rounded=0;whiteSpace=wrap;html=1;" parent="1" vertex="1">
          <mxGeometry x="80" y="120" width="50" height="20" as="geometry" />
        </mxCell>
        <mxCell id="LvPxyvV4hAA7-NQwLExC-19" value="tag_id" style="rounded=0;whiteSpace=wrap;html=1;" parent="1" vertex="1">
          <mxGeometry x="35" y="270" width="60" height="20" as="geometry" />
        </mxCell>
        <mxCell id="LvPxyvV4hAA7-NQwLExC-20" value="restaurant_id" style="rounded=0;whiteSpace=wrap;html=1;" parent="1" vertex="1">
          <mxGeometry x="95" y="270" width="90" height="20" as="geometry" />
        </mxCell>
        <mxCell id="LvPxyvV4hAA7-NQwLExC-21" value="index" style="rounded=0;whiteSpace=wrap;html=1;" parent="1" vertex="1">
          <mxGeometry x="185" y="270" width="50" height="20" as="geometry" />
        </mxCell>
        <mxCell id="LvPxyvV4hAA7-NQwLExC-24" value="order_id" style="rounded=0;whiteSpace=wrap;html=1;" parent="1" vertex="1">
          <mxGeometry x="275" y="200" width="60" height="20" as="geometry" />
        </mxCell>
        <mxCell id="LvPxyvV4hAA7-NQwLExC-25" value="orderDate" style="rounded=0;whiteSpace=wrap;html=1;" parent="1" vertex="1">
          <mxGeometry x="500" y="200" width="70" height="20" as="geometry" />
        </mxCell>
        <mxCell id="LvPxyvV4hAA7-NQwLExC-26" value="numberOfPizzas" style="rounded=0;whiteSpace=wrap;html=1;" parent="1" vertex="1">
          <mxGeometry x="570" y="200" width="100" height="20" as="geometry" />
        </mxCell>
        <mxCell id="LvPxyvV4hAA7-NQwLExC-32" value="address" style="rounded=0;whiteSpace=wrap;html=1;" parent="1" vertex="1">
          <mxGeometry x="670" y="200" width="60" height="20" as="geometry" />
        </mxCell>
        <mxCell id="LvPxyvV4hAA7-NQwLExC-33" value="city" style="rounded=0;whiteSpace=wrap;html=1;" parent="1" vertex="1">
          <mxGeometry x="730" y="200" width="40" height="20" as="geometry" />
        </mxCell>
        <mxCell id="LvPxyvV4hAA7-NQwLExC-34" value="zip" style="rounded=0;whiteSpace=wrap;html=1;" parent="1" vertex="1">
          <mxGeometry x="770" y="200" width="40" height="20" as="geometry" />
        </mxCell>
        <mxCell id="LvPxyvV4hAA7-NQwLExC-35" value="customer_id" style="rounded=0;whiteSpace=wrap;html=1;" parent="1" vertex="1">
          <mxGeometry x="420" y="200" width="80" height="20" as="geometry" />
        </mxCell>
        <mxCell id="LvPxyvV4hAA7-NQwLExC-36" value="restaurant_id" style="rounded=0;whiteSpace=wrap;html=1;" parent="1" vertex="1">
          <mxGeometry x="330" y="200" width="90" height="20" as="geometry" />
        </mxCell>
        <mxCell id="LvPxyvV4hAA7-NQwLExC-45" style="edgeStyle=orthogonalEdgeStyle;rounded=0;orthogonalLoop=1;jettySize=auto;html=1;entryX=0.5;entryY=0;entryDx=0;entryDy=0;endArrow=none;endFill=0;exitX=0.5;exitY=1;exitDx=0;exitDy=0;" parent="1" source="LvPxyvV4hAA7-NQwLExC-39" target="LvPxyvV4hAA7-NQwLExC-44" edge="1">
          <mxGeometry relative="1" as="geometry">
            <Array as="points">
              <mxPoint x="555" y="140" />
              <mxPoint x="460" y="140" />
            </Array>
            <mxPoint x="555" y="140" as="sourcePoint" />
          </mxGeometry>
        </mxCell>
        <mxCell id="LvPxyvV4hAA7-NQwLExC-39" value="PK" style="rounded=0;whiteSpace=wrap;html=1;fillColor=#fff2cc;strokeColor=#d6b656;" parent="1" vertex="1">
          <mxGeometry x="510" y="70" width="90" height="20" as="geometry" />
        </mxCell>
        <mxCell id="LvPxyvV4hAA7-NQwLExC-46" style="edgeStyle=orthogonalEdgeStyle;rounded=0;orthogonalLoop=1;jettySize=auto;html=1;entryX=0.429;entryY=0;entryDx=0;entryDy=0;entryPerimeter=0;endArrow=none;endFill=0;" parent="1" source="LvPxyvV4hAA7-NQwLExC-41" target="LvPxyvV4hAA7-NQwLExC-43" edge="1">
          <mxGeometry relative="1" as="geometry">
            <Array as="points">
              <mxPoint x="180" y="130" />
              <mxPoint x="370" y="130" />
              <mxPoint x="370" y="180" />
            </Array>
          </mxGeometry>
        </mxCell>
        <mxCell id="62cyzgn9UV9aydWhK4kd-8" style="edgeStyle=orthogonalEdgeStyle;rounded=0;orthogonalLoop=1;jettySize=auto;html=1;entryX=0.851;entryY=-0.03;entryDx=0;entryDy=0;entryPerimeter=0;endArrow=none;endFill=0;" edge="1" parent="1" source="LvPxyvV4hAA7-NQwLExC-41" target="LvPxyvV4hAA7-NQwLExC-49">
          <mxGeometry relative="1" as="geometry">
            <Array as="points">
              <mxPoint x="150" y="170" />
              <mxPoint x="172" y="170" />
            </Array>
          </mxGeometry>
        </mxCell>
        <mxCell id="LvPxyvV4hAA7-NQwLExC-41" value="PK" style="rounded=0;whiteSpace=wrap;html=1;fillColor=#fff2cc;strokeColor=#d6b656;" parent="1" vertex="1">
          <mxGeometry x="110" y="70" width="90" height="20" as="geometry" />
        </mxCell>
        <mxCell id="LvPxyvV4hAA7-NQwLExC-43" value="FK" style="rounded=0;whiteSpace=wrap;html=1;fillColor=#dae8fc;strokeColor=#6c8ebf;" parent="1" vertex="1">
          <mxGeometry x="330" y="180" width="90" height="20" as="geometry" />
        </mxCell>
        <mxCell id="LvPxyvV4hAA7-NQwLExC-44" value="FK" style="rounded=0;whiteSpace=wrap;html=1;fillColor=#dae8fc;strokeColor=#6c8ebf;" parent="1" vertex="1">
          <mxGeometry x="420" y="180" width="80" height="20" as="geometry" />
        </mxCell>
        <mxCell id="LvPxyvV4hAA7-NQwLExC-51" style="edgeStyle=orthogonalEdgeStyle;rounded=0;orthogonalLoop=1;jettySize=auto;html=1;endArrow=none;endFill=0;entryX=0.5;entryY=0;entryDx=0;entryDy=0;" parent="1" source="LvPxyvV4hAA7-NQwLExC-47" target="LvPxyvV4hAA7-NQwLExC-48" edge="1">
          <mxGeometry relative="1" as="geometry">
            <Array as="points">
              <mxPoint x="40" y="250" />
            </Array>
          </mxGeometry>
        </mxCell>
        <mxCell id="LvPxyvV4hAA7-NQwLExC-47" value="PK" style="rounded=0;whiteSpace=wrap;html=1;fillColor=#fff2cc;strokeColor=#d6b656;" parent="1" vertex="1">
          <mxGeometry x="20" y="140" width="60" height="20" as="geometry" />
        </mxCell>
        <mxCell id="LvPxyvV4hAA7-NQwLExC-48" value="FK" style="rounded=0;whiteSpace=wrap;html=1;fillColor=#dae8fc;strokeColor=#6c8ebf;" parent="1" vertex="1">
          <mxGeometry x="35" y="250" width="60" height="20" as="geometry" />
        </mxCell>
        <mxCell id="LvPxyvV4hAA7-NQwLExC-49" value="FK" style="rounded=0;whiteSpace=wrap;html=1;fillColor=#dae8fc;strokeColor=#6c8ebf;" parent="1" vertex="1">
          <mxGeometry x="95" y="250" width="90" height="20" as="geometry" />
        </mxCell>
        <mxCell id="LvPxyvV4hAA7-NQwLExC-63" style="edgeStyle=orthogonalEdgeStyle;rounded=0;orthogonalLoop=1;jettySize=auto;html=1;endArrow=none;endFill=0;" parent="1" source="LvPxyvV4hAA7-NQwLExC-52" edge="1">
          <mxGeometry relative="1" as="geometry">
            <Array as="points">
              <mxPoint x="260" y="230" />
              <mxPoint x="260" y="320" />
              <mxPoint x="220" y="320" />
              <mxPoint x="220" y="429" />
            </Array>
            <mxPoint x="220" y="429" as="targetPoint" />
          </mxGeometry>
        </mxCell>
        <mxCell id="LvPxyvV4hAA7-NQwLExC-73" style="edgeStyle=orthogonalEdgeStyle;rounded=0;orthogonalLoop=1;jettySize=auto;html=1;entryX=0.5;entryY=0;entryDx=0;entryDy=0;endArrow=none;endFill=0;" parent="1" source="LvPxyvV4hAA7-NQwLExC-52" target="LvPxyvV4hAA7-NQwLExC-69" edge="1">
          <mxGeometry relative="1" as="geometry">
            <Array as="points">
              <mxPoint x="320" y="270" />
              <mxPoint x="515" y="270" />
              <mxPoint x="515" y="300" />
            </Array>
          </mxGeometry>
        </mxCell>
        <mxCell id="LvPxyvV4hAA7-NQwLExC-52" value="PK" style="rounded=0;whiteSpace=wrap;html=1;fillColor=#fff2cc;strokeColor=#d6b656;" parent="1" vertex="1">
          <mxGeometry x="275" y="220" width="55" height="20" as="geometry" />
        </mxCell>
        <mxCell id="LvPxyvV4hAA7-NQwLExC-53" value="CK" style="rounded=0;whiteSpace=wrap;html=1;" parent="1" vertex="1">
          <mxGeometry x="330" y="220" width="240" height="20" as="geometry" />
        </mxCell>
        <mxCell id="LvPxyvV4hAA7-NQwLExC-54" value="phase_id" style="rounded=0;whiteSpace=wrap;html=1;" parent="1" vertex="1">
          <mxGeometry x="20" y="360" width="75" height="20" as="geometry" />
        </mxCell>
        <mxCell id="LvPxyvV4hAA7-NQwLExC-55" value="phaseTime" style="rounded=0;whiteSpace=wrap;html=1;" parent="1" vertex="1">
          <mxGeometry x="260" y="450" width="80" height="20" as="geometry" />
        </mxCell>
        <mxCell id="LvPxyvV4hAA7-NQwLExC-56" value="order_id" style="rounded=0;whiteSpace=wrap;html=1;" parent="1" vertex="1">
          <mxGeometry x="180" y="450" width="80" height="20" as="geometry" />
        </mxCell>
        <mxCell id="LvPxyvV4hAA7-NQwLExC-57" value="phase" style="rounded=0;whiteSpace=wrap;html=1;" parent="1" vertex="1">
          <mxGeometry x="90" y="360" width="60" height="20" as="geometry" />
        </mxCell>
        <mxCell id="LvPxyvV4hAA7-NQwLExC-58" value="phase_id" style="rounded=0;whiteSpace=wrap;html=1;" parent="1" vertex="1">
          <mxGeometry x="100" y="450" width="80" height="20" as="geometry" />
        </mxCell>
        <mxCell id="LvPxyvV4hAA7-NQwLExC-59" value="FK" style="rounded=0;whiteSpace=wrap;html=1;fillColor=#dae8fc;strokeColor=#6c8ebf;" parent="1" vertex="1">
          <mxGeometry x="180" y="430" width="80" height="20" as="geometry" />
        </mxCell>
        <mxCell id="LvPxyvV4hAA7-NQwLExC-92" style="edgeStyle=orthogonalEdgeStyle;rounded=0;orthogonalLoop=1;jettySize=auto;html=1;entryX=0.5;entryY=1;entryDx=0;entryDy=0;endArrow=none;endFill=0;" parent="1" source="LvPxyvV4hAA7-NQwLExC-60" target="LvPxyvV4hAA7-NQwLExC-61" edge="1">
          <mxGeometry relative="1" as="geometry" />
        </mxCell>
        <mxCell id="LvPxyvV4hAA7-NQwLExC-60" value="FK" style="rounded=0;whiteSpace=wrap;html=1;fillColor=#dae8fc;strokeColor=#6c8ebf;" parent="1" vertex="1">
          <mxGeometry x="100" y="430" width="80" height="20" as="geometry" />
        </mxCell>
        <mxCell id="LvPxyvV4hAA7-NQwLExC-61" value="PK" style="rounded=0;whiteSpace=wrap;html=1;fillColor=#fff2cc;strokeColor=#d6b656;" parent="1" vertex="1">
          <mxGeometry x="20" y="380" width="70" height="20" as="geometry" />
        </mxCell>
        <mxCell id="LvPxyvV4hAA7-NQwLExC-62" value="PK" style="rounded=0;whiteSpace=wrap;html=1;fillColor=#fff2cc;strokeColor=#d6b656;" parent="1" vertex="1">
          <mxGeometry x="35" y="290" width="150" height="20" as="geometry" />
        </mxCell>
        <mxCell id="LvPxyvV4hAA7-NQwLExC-66" value="stars" style="rounded=0;whiteSpace=wrap;html=1;" parent="1" vertex="1">
          <mxGeometry x="552.5" y="320" width="45" height="20" as="geometry" />
        </mxCell>
        <mxCell id="LvPxyvV4hAA7-NQwLExC-67" value="order_id" style="rounded=0;whiteSpace=wrap;html=1;" parent="1" vertex="1">
          <mxGeometry x="472.5" y="320" width="80" height="20" as="geometry" />
        </mxCell>
        <mxCell id="LvPxyvV4hAA7-NQwLExC-68" value="review_id" style="rounded=0;whiteSpace=wrap;html=1;" parent="1" vertex="1">
          <mxGeometry x="392.5" y="320" width="80" height="20" as="geometry" />
        </mxCell>
        <mxCell id="LvPxyvV4hAA7-NQwLExC-69" value="FK" style="rounded=0;whiteSpace=wrap;html=1;fillColor=#dae8fc;strokeColor=#6c8ebf;" parent="1" vertex="1">
          <mxGeometry x="472.5" y="300" width="80" height="20" as="geometry" />
        </mxCell>
        <mxCell id="LvPxyvV4hAA7-NQwLExC-71" value="PK" style="rounded=0;whiteSpace=wrap;html=1;fillColor=#fff2cc;strokeColor=#d6b656;" parent="1" vertex="1">
          <mxGeometry x="392.5" y="340" width="80" height="20" as="geometry" />
        </mxCell>
        <mxCell id="LvPxyvV4hAA7-NQwLExC-72" value="message" style="rounded=0;whiteSpace=wrap;html=1;" parent="1" vertex="1">
          <mxGeometry x="597.5" y="320" width="65" height="20" as="geometry" />
        </mxCell>
        <mxCell id="LvPxyvV4hAA7-NQwLExC-75" value="order_id" style="rounded=0;whiteSpace=wrap;html=1;" parent="1" vertex="1">
          <mxGeometry x="510" y="450" width="80" height="20" as="geometry" />
        </mxCell>
        <mxCell id="LvPxyvV4hAA7-NQwLExC-76" value="pizza_id" style="rounded=0;whiteSpace=wrap;html=1;" parent="1" vertex="1">
          <mxGeometry x="430" y="450" width="80" height="20" as="geometry" />
        </mxCell>
        <mxCell id="LvPxyvV4hAA7-NQwLExC-79" style="edgeStyle=orthogonalEdgeStyle;rounded=0;orthogonalLoop=1;jettySize=auto;html=1;entryX=0.5;entryY=1;entryDx=0;entryDy=0;endArrow=none;endFill=0;" parent="1" source="LvPxyvV4hAA7-NQwLExC-77" target="LvPxyvV4hAA7-NQwLExC-52" edge="1">
          <mxGeometry relative="1" as="geometry">
            <Array as="points">
              <mxPoint x="550" y="400" />
              <mxPoint x="300" y="400" />
              <mxPoint x="300" y="240" />
            </Array>
          </mxGeometry>
        </mxCell>
        <mxCell id="LvPxyvV4hAA7-NQwLExC-77" value="FK" style="rounded=0;whiteSpace=wrap;html=1;fillColor=#dae8fc;strokeColor=#6c8ebf;" parent="1" vertex="1">
          <mxGeometry x="510" y="430" width="80" height="20" as="geometry" />
        </mxCell>
        <mxCell id="62cyzgn9UV9aydWhK4kd-39" style="edgeStyle=orthogonalEdgeStyle;rounded=0;orthogonalLoop=1;jettySize=auto;html=1;entryX=0.456;entryY=0.014;entryDx=0;entryDy=0;entryPerimeter=0;endArrow=none;endFill=0;" edge="1" parent="1" source="LvPxyvV4hAA7-NQwLExC-78" target="62cyzgn9UV9aydWhK4kd-37">
          <mxGeometry relative="1" as="geometry" />
        </mxCell>
        <mxCell id="LvPxyvV4hAA7-NQwLExC-78" value="PK" style="rounded=0;whiteSpace=wrap;html=1;fillColor=#fff2cc;strokeColor=#d6b656;" parent="1" vertex="1">
          <mxGeometry x="430" y="470" width="80" height="20" as="geometry" />
        </mxCell>
        <mxCell id="LvPxyvV4hAA7-NQwLExC-81" value="reviewDate" style="rounded=0;whiteSpace=wrap;html=1;" parent="1" vertex="1">
          <mxGeometry x="662.5" y="320" width="80" height="20" as="geometry" />
        </mxCell>
        <mxCell id="LvPxyvV4hAA7-NQwLExC-82" value="Restaurants" style="text;html=1;align=center;verticalAlign=middle;resizable=0;points=[];autosize=1;strokeColor=none;fillColor=none;" parent="1" vertex="1">
          <mxGeometry x="95" y="30" width="80" height="20" as="geometry" />
        </mxCell>
        <mxCell id="LvPxyvV4hAA7-NQwLExC-83" value="Customers" style="text;html=1;align=center;verticalAlign=middle;resizable=0;points=[];autosize=1;strokeColor=none;fillColor=none;" parent="1" vertex="1">
          <mxGeometry x="485" y="30" width="70" height="20" as="geometry" />
        </mxCell>
        <mxCell id="LvPxyvV4hAA7-NQwLExC-84" value="Orders" style="text;html=1;align=center;verticalAlign=middle;resizable=0;points=[];autosize=1;strokeColor=none;fillColor=none;" parent="1" vertex="1">
          <mxGeometry x="255" y="180" width="50" height="20" as="geometry" />
        </mxCell>
        <mxCell id="LvPxyvV4hAA7-NQwLExC-85" value="Tags" style="text;html=1;align=center;verticalAlign=middle;resizable=0;points=[];autosize=1;strokeColor=none;fillColor=none;" parent="1" vertex="1">
          <mxGeometry x="20" y="90" width="40" height="20" as="geometry" />
        </mxCell>
        <mxCell id="LvPxyvV4hAA7-NQwLExC-86" value="Restaurant Tags" style="text;html=1;align=center;verticalAlign=middle;resizable=0;points=[];autosize=1;strokeColor=none;fillColor=none;" parent="1" vertex="1">
          <mxGeometry x="55" y="230" width="100" height="20" as="geometry" />
        </mxCell>
        <mxCell id="LvPxyvV4hAA7-NQwLExC-87" value="Reviews" style="text;html=1;align=center;verticalAlign=middle;resizable=0;points=[];autosize=1;strokeColor=none;fillColor=none;" parent="1" vertex="1">
          <mxGeometry x="367.5" y="300" width="60" height="20" as="geometry" />
        </mxCell>
        <mxCell id="LvPxyvV4hAA7-NQwLExC-88" value="Pizzas" style="text;html=1;align=center;verticalAlign=middle;resizable=0;points=[];autosize=1;strokeColor=none;fillColor=none;" parent="1" vertex="1">
          <mxGeometry x="395" y="430" width="50" height="20" as="geometry" />
        </mxCell>
        <mxCell id="LvPxyvV4hAA7-NQwLExC-89" value="Phases" style="text;html=1;align=center;verticalAlign=middle;resizable=0;points=[];autosize=1;strokeColor=none;fillColor=none;" parent="1" vertex="1">
          <mxGeometry x="5" y="340" width="60" height="20" as="geometry" />
        </mxCell>
        <mxCell id="LvPxyvV4hAA7-NQwLExC-91" value="Order Phases" style="text;html=1;align=center;verticalAlign=middle;resizable=0;points=[];autosize=1;strokeColor=none;fillColor=none;" parent="1" vertex="1">
          <mxGeometry x="100" y="410" width="90" height="20" as="geometry" />
        </mxCell>
        <mxCell id="LvPxyvV4hAA7-NQwLExC-94" value="size_id" style="rounded=0;whiteSpace=wrap;html=1;" parent="1" vertex="1">
          <mxGeometry x="110" y="700" width="80" height="20" as="geometry" />
        </mxCell>
        <mxCell id="LvPxyvV4hAA7-NQwLExC-96" value="PK" style="rounded=0;whiteSpace=wrap;html=1;fillColor=#fff2cc;strokeColor=#d6b656;" parent="1" vertex="1">
          <mxGeometry x="110" y="720" width="80" height="20" as="geometry" />
        </mxCell>
        <mxCell id="LvPxyvV4hAA7-NQwLExC-97" value="Sizes" style="text;html=1;align=center;verticalAlign=middle;resizable=0;points=[];autosize=1;strokeColor=none;fillColor=none;" parent="1" vertex="1">
          <mxGeometry x="80" y="680" width="40" height="20" as="geometry" />
        </mxCell>
        <mxCell id="LvPxyvV4hAA7-NQwLExC-99" value="size" style="rounded=0;whiteSpace=wrap;html=1;" parent="1" vertex="1">
          <mxGeometry x="190" y="700" width="55" height="20" as="geometry" />
        </mxCell>
        <mxCell id="LvPxyvV4hAA7-NQwLExC-100" value="calories" style="rounded=0;whiteSpace=wrap;html=1;" parent="1" vertex="1">
          <mxGeometry x="245" y="700" width="65" height="20" as="geometry" />
        </mxCell>
        <mxCell id="LvPxyvV4hAA7-NQwLExC-101" value="baseCost" style="rounded=0;whiteSpace=wrap;html=1;" parent="1" vertex="1">
          <mxGeometry x="310" y="700" width="65" height="20" as="geometry" />
        </mxCell>
        <mxCell id="LvPxyvV4hAA7-NQwLExC-102" value="scale" style="rounded=0;whiteSpace=wrap;html=1;" parent="1" vertex="1">
          <mxGeometry x="375" y="700" width="50" height="20" as="geometry" />
        </mxCell>
        <mxCell id="u-rbPr_MQxuxYairI9W--1" value="size_id" style="rounded=0;whiteSpace=wrap;html=1;" parent="1" vertex="1">
          <mxGeometry x="590" y="450" width="80" height="20" as="geometry" />
        </mxCell>
        <mxCell id="62cyzgn9UV9aydWhK4kd-1" value="1..1" style="text;html=1;align=center;verticalAlign=middle;resizable=0;points=[];autosize=1;strokeColor=none;fillColor=none;" vertex="1" parent="1">
          <mxGeometry x="180" y="90" width="40" height="20" as="geometry" />
        </mxCell>
        <mxCell id="62cyzgn9UV9aydWhK4kd-2" value="1..1" style="text;html=1;align=center;verticalAlign=middle;resizable=0;points=[];autosize=1;strokeColor=none;fillColor=none;" vertex="1" parent="1">
          <mxGeometry x="555" y="90" width="40" height="20" as="geometry" />
        </mxCell>
        <mxCell id="62cyzgn9UV9aydWhK4kd-4" value="1..1" style="text;html=1;align=center;verticalAlign=middle;resizable=0;points=[];autosize=1;strokeColor=none;fillColor=none;" vertex="1" parent="1">
          <mxGeometry x="115" y="90" width="40" height="20" as="geometry" />
        </mxCell>
        <mxCell id="62cyzgn9UV9aydWhK4kd-5" value="1..1" style="text;html=1;align=center;verticalAlign=middle;resizable=0;points=[];autosize=1;strokeColor=none;fillColor=none;" vertex="1" parent="1">
          <mxGeometry x="5" y="160" width="40" height="20" as="geometry" />
        </mxCell>
        <mxCell id="62cyzgn9UV9aydWhK4kd-6" value="0..*" style="text;html=1;align=center;verticalAlign=middle;resizable=0;points=[];autosize=1;strokeColor=none;fillColor=none;" vertex="1" parent="1">
          <mxGeometry x="10" y="230" width="30" height="20" as="geometry" />
        </mxCell>
        <mxCell id="62cyzgn9UV9aydWhK4kd-7" value="0..*" style="text;html=1;align=center;verticalAlign=middle;resizable=0;points=[];autosize=1;strokeColor=none;fillColor=none;" vertex="1" parent="1">
          <mxGeometry x="170" y="230" width="30" height="20" as="geometry" />
        </mxCell>
        <mxCell id="62cyzgn9UV9aydWhK4kd-11" value="has" style="text;html=1;align=center;verticalAlign=middle;resizable=0;points=[];autosize=1;strokeColor=none;fillColor=none;" vertex="1" parent="1">
          <mxGeometry x="35" y="190" width="40" height="20" as="geometry" />
        </mxCell>
        <mxCell id="62cyzgn9UV9aydWhK4kd-13" value="has" style="text;html=1;align=center;verticalAlign=middle;resizable=0;points=[];autosize=1;strokeColor=none;fillColor=none;" vertex="1" parent="1">
          <mxGeometry x="130" y="170" width="40" height="20" as="geometry" />
        </mxCell>
        <mxCell id="62cyzgn9UV9aydWhK4kd-16" value="0..*" style="text;html=1;align=center;verticalAlign=middle;resizable=0;points=[];autosize=1;strokeColor=none;fillColor=none;" vertex="1" parent="1">
          <mxGeometry x="370" y="160" width="30" height="20" as="geometry" />
        </mxCell>
        <mxCell id="62cyzgn9UV9aydWhK4kd-17" value="0..*" style="text;html=1;align=center;verticalAlign=middle;resizable=0;points=[];autosize=1;strokeColor=none;fillColor=none;" vertex="1" parent="1">
          <mxGeometry x="460" y="160" width="30" height="20" as="geometry" />
        </mxCell>
        <mxCell id="62cyzgn9UV9aydWhK4kd-18" value="places" style="text;html=1;align=center;verticalAlign=middle;resizable=0;points=[];autosize=1;strokeColor=none;fillColor=none;" vertex="1" parent="1">
          <mxGeometry x="487.5" y="120" width="50" height="20" as="geometry" />
        </mxCell>
        <mxCell id="62cyzgn9UV9aydWhK4kd-19" value="receives" style="text;html=1;align=center;verticalAlign=middle;resizable=0;points=[];autosize=1;strokeColor=none;fillColor=none;" vertex="1" parent="1">
          <mxGeometry x="260" y="110" width="60" height="20" as="geometry" />
        </mxCell>
        <mxCell id="62cyzgn9UV9aydWhK4kd-20" value="1..1" style="text;html=1;align=center;verticalAlign=middle;resizable=0;points=[];autosize=1;strokeColor=none;fillColor=none;" vertex="1" parent="1">
          <mxGeometry x="235" y="210" width="40" height="20" as="geometry" />
        </mxCell>
        <mxCell id="62cyzgn9UV9aydWhK4kd-21" value="1..1" style="text;html=1;align=center;verticalAlign=middle;resizable=0;points=[];autosize=1;strokeColor=none;fillColor=none;" vertex="1" parent="1">
          <mxGeometry x="265" y="240" width="40" height="20" as="geometry" />
        </mxCell>
        <mxCell id="62cyzgn9UV9aydWhK4kd-22" value="1..1" style="text;html=1;align=center;verticalAlign=middle;resizable=0;points=[];autosize=1;strokeColor=none;fillColor=none;" vertex="1" parent="1">
          <mxGeometry x="320" y="250" width="40" height="20" as="geometry" />
        </mxCell>
        <mxCell id="62cyzgn9UV9aydWhK4kd-23" value="1..1" style="text;html=1;align=center;verticalAlign=middle;resizable=0;points=[];autosize=1;strokeColor=none;fillColor=none;" vertex="1" parent="1">
          <mxGeometry x="20" y="400" width="40" height="20" as="geometry" />
        </mxCell>
        <mxCell id="62cyzgn9UV9aydWhK4kd-24" value="0..*" style="text;html=1;align=center;verticalAlign=middle;resizable=0;points=[];autosize=1;strokeColor=none;fillColor=none;" vertex="1" parent="1">
          <mxGeometry x="70" y="440" width="30" height="20" as="geometry" />
        </mxCell>
        <mxCell id="62cyzgn9UV9aydWhK4kd-25" value="0..*" style="text;html=1;align=center;verticalAlign=middle;resizable=0;points=[];autosize=1;strokeColor=none;fillColor=none;" vertex="1" parent="1">
          <mxGeometry x="220" y="410" width="30" height="20" as="geometry" />
        </mxCell>
        <mxCell id="62cyzgn9UV9aydWhK4kd-26" value="has" style="text;html=1;align=center;verticalAlign=middle;resizable=0;points=[];autosize=1;strokeColor=none;fillColor=none;" vertex="1" parent="1">
          <mxGeometry x="55" y="420" width="40" height="20" as="geometry" />
        </mxCell>
        <mxCell id="62cyzgn9UV9aydWhK4kd-27" value="has" style="text;html=1;align=center;verticalAlign=middle;resizable=0;points=[];autosize=1;strokeColor=none;fillColor=none;" vertex="1" parent="1">
          <mxGeometry x="215" y="350" width="40" height="20" as="geometry" />
        </mxCell>
        <mxCell id="62cyzgn9UV9aydWhK4kd-28" value="has" style="text;html=1;align=center;verticalAlign=middle;resizable=0;points=[];autosize=1;strokeColor=none;fillColor=none;" vertex="1" parent="1">
          <mxGeometry x="412.5" y="250" width="40" height="20" as="geometry" />
        </mxCell>
        <mxCell id="62cyzgn9UV9aydWhK4kd-29" value="1..1" style="text;html=1;align=center;verticalAlign=middle;resizable=0;points=[];autosize=1;strokeColor=none;fillColor=none;" vertex="1" parent="1">
          <mxGeometry x="510" y="280" width="40" height="20" as="geometry" />
        </mxCell>
        <mxCell id="62cyzgn9UV9aydWhK4kd-30" value="topping_id" style="rounded=0;whiteSpace=wrap;html=1;" vertex="1" parent="1">
          <mxGeometry x="630" y="610" width="80" height="20" as="geometry" />
        </mxCell>
        <mxCell id="62cyzgn9UV9aydWhK4kd-31" value="pizza_id" style="rounded=0;whiteSpace=wrap;html=1;" vertex="1" parent="1">
          <mxGeometry x="550" y="610" width="80" height="20" as="geometry" />
        </mxCell>
        <mxCell id="62cyzgn9UV9aydWhK4kd-32" value="FK" style="rounded=0;whiteSpace=wrap;html=1;fillColor=#dae8fc;strokeColor=#6c8ebf;" vertex="1" parent="1">
          <mxGeometry x="630" y="590" width="80" height="20" as="geometry" />
        </mxCell>
        <mxCell id="62cyzgn9UV9aydWhK4kd-34" value="region_id" style="rounded=0;whiteSpace=wrap;html=1;" vertex="1" parent="1">
          <mxGeometry x="710" y="610" width="67.5" height="20" as="geometry" />
        </mxCell>
        <mxCell id="62cyzgn9UV9aydWhK4kd-35" value="cost" style="rounded=0;whiteSpace=wrap;html=1;" vertex="1" parent="1">
          <mxGeometry x="777.5" y="610" width="40" height="20" as="geometry" />
        </mxCell>
        <mxCell id="62cyzgn9UV9aydWhK4kd-36" value="Pizza Toppings" style="text;html=1;align=center;verticalAlign=middle;resizable=0;points=[];autosize=1;strokeColor=none;fillColor=none;" vertex="1" parent="1">
          <mxGeometry x="452.5" y="580" width="100" height="20" as="geometry" />
        </mxCell>
        <mxCell id="62cyzgn9UV9aydWhK4kd-37" value="FK" style="rounded=0;whiteSpace=wrap;html=1;fillColor=#dae8fc;strokeColor=#6c8ebf;" vertex="1" parent="1">
          <mxGeometry x="550" y="590" width="80" height="20" as="geometry" />
        </mxCell>
        <mxCell id="62cyzgn9UV9aydWhK4kd-38" value="FK" style="rounded=0;whiteSpace=wrap;html=1;fillColor=#dae8fc;strokeColor=#6c8ebf;" vertex="1" parent="1">
          <mxGeometry x="710" y="590" width="67.5" height="20" as="geometry" />
        </mxCell>
      </root>
    </mxGraphModel>
  </diagram>
</mxfile>
